<?xml version="1.0" standalone="no"?>
<!DOCTYPE svg PUBLIC "-//W3C//DTD SVG 1.1//EN"
"http://www.w3.org/Graphics/SVG/1.1/DTD/svg11.dtd">

<svg width="812" height="355" view_box="0 0 812 355"
xmlns="http://www.w3.org/2000/svg"
xmlns:link="http://www.w3.org/1999/xlink">\n\n<desc>Généré par Mocodo 2.3.7 le Mon, 11 Jan 2021 02:46:02</desc>

<rect id="frame" x="0" y="0" width="812" height="355" fill="#ffffbf" stroke="none" stroke-width="0"/>

<!-- Association CONTIENT -->
<line x1="771" y1="186" x2="668" y2="186" stroke="#74add1" stroke-width="2"/>
<text x="712" y="203.0" fill="#d73027" font-family="Verdana" font-size="12">1,N</text>
<line x1="536" y1="186" x2="668" y2="186" stroke="#74add1" stroke-width="2"/>
<text x="602" y="203.0" fill="#d73027" font-family="Verdana" font-size="12">1,N</text>
<g id="association-CONTIENT">
	<path d="M 693 161 a 14 14 90 0 1 14 14 V 186 h -78 V 175 a 14 14 90 0 1 14 -14" fill="#abd9e9" stroke="#abd9e9" stroke-width="0"/>
	<path d="M 707 186.0 v 11 a 14 14 90 0 1 -14 14 H 643 a 14 14 90 0 1 -14 -14 V 186.0 H 78" fill="#e0f3f8" stroke="#e0f3f8" stroke-width="0"/>
	<rect x="629" y="161" width="78" height="50" fill="none" rx="14" stroke="#74add1" stroke-width="2"/>
	<line x1="629" y1="186" x2="707" y2="186" stroke="#74add1" stroke-width="1"/>
	<text x="636" y="178.7" fill="#000000" font-family="Verdana" font-size="12">CONTIENT</text>
</g>

<!-- Association REQUIERT -->
<line x1="244" y1="68" x2="381" y2="68" stroke="#74add1" stroke-width="2"/>
<text x="309" y="85.0" fill="#d73027" font-family="Verdana" font-size="12">1,N</text>
<line x1="244" y1="186" x2="381" y2="68" stroke="#74add1" stroke-width="2"/>
<text x="262.80254507" y="144" fill="#d73027" font-family="Verdana" font-size="12">1,N</text>
<g id="association-REQUIERT">
	<path d="M 406 43 a 14 14 90 0 1 14 14 V 68 h -78 V 57 a 14 14 90 0 1 14 -14" fill="#abd9e9" stroke="#abd9e9" stroke-width="0"/>
	<path d="M 420 68.0 v 11 a 14 14 90 0 1 -14 14 H 356 a 14 14 90 0 1 -14 -14 V 68.0 H 78" fill="#e0f3f8" stroke="#e0f3f8" stroke-width="0"/>
	<rect x="342" y="43" width="78" height="50" fill="none" rx="14" stroke="#74add1" stroke-width="2"/>
	<line x1="342" y1="68" x2="420" y2="68" stroke="#74add1" stroke-width="1"/>
	<text x="349" y="60.7" fill="#000000" font-family="Verdana" font-size="12">REQUIERT</text>
</g>

<!-- Association ASSOCIE -->
<line x1="244" y1="186" x2="134" y2="186" stroke="#74add1" stroke-width="2"/>
<text x="174" y="203.0" fill="#d73027" font-family="Verdana" font-size="12">1,N</text>
<line x1="38" y1="186" x2="134" y2="186" stroke="#74add1" stroke-width="2"/>
<text x="72" y="203.0" fill="#d73027" font-family="Verdana" font-size="12">1,N</text>
<g id="association-ASSOCIE">
	<path d="M 155 161 a 14 14 90 0 1 14 14 V 186 h -70 V 175 a 14 14 90 0 1 14 -14" fill="#abd9e9" stroke="#abd9e9" stroke-width="0"/>
	<path d="M 169 186.0 v 11 a 14 14 90 0 1 -14 14 H 113 a 14 14 90 0 1 -14 -14 V 186.0 H 70" fill="#e0f3f8" stroke="#e0f3f8" stroke-width="0"/>
	<rect x="99" y="161" width="70" height="50" fill="none" rx="14" stroke="#74add1" stroke-width="2"/>
	<line x1="99" y1="186" x2="169" y2="186" stroke="#74add1" stroke-width="1"/>
	<text x="106" y="178.7" fill="#000000" font-family="Verdana" font-size="12">ASSOCIE</text>
</g>

<!-- Association PEUT CONSULTER -->
<line x1="244" y1="186" x2="381" y2="186" stroke="#74add1" stroke-width="2"/>
<text x="292" y="203.0" fill="#d73027" font-family="Verdana" font-size="12">1,N</text>
<line x1="536" y1="186" x2="381" y2="186" stroke="#74add1" stroke-width="2"/>
<text x="448" y="203.0" fill="#d73027" font-family="Verdana" font-size="12">1,N</text>
<line x1="244" y1="304" x2="381" y2="186" stroke="#74add1" stroke-width="2"/>
<text x="262.80254507" y="262" fill="#d73027" font-family="Verdana" font-size="12">1,N</text>
<line x1="381" y1="304" x2="381" y2="186" stroke="#74add1" stroke-width="2"/>
<text x="386.0" y="262" fill="#d73027" font-family="Verdana" font-size="12">1,N</text>
<line x1="536" y1="304" x2="381" y2="186" stroke="#74add1" stroke-width="2"/>
<text x="461" y="278.730084247" fill="#d73027" font-family="Verdana" font-size="12">1,N</text>
<g id="association-PEUT CONSULTER">
	<path d="M 429 161 a 14 14 90 0 1 14 14 V 186 h -124 V 175 a 14 14 90 0 1 14 -14" fill="#abd9e9" stroke="#abd9e9" stroke-width="0"/>
	<path d="M 443 186.0 v 11 a 14 14 90 0 1 -14 14 H 333 a 14 14 90 0 1 -14 -14 V 186.0 H 124" fill="#e0f3f8" stroke="#e0f3f8" stroke-width="0"/>
	<rect x="319" y="161" width="124" height="50" fill="none" rx="14" stroke="#74add1" stroke-width="2"/>
	<line x1="319" y1="186" x2="443" y2="186" stroke="#74add1" stroke-width="1"/>
	<text x="326" y="178.7" fill="#000000" font-family="Verdana" font-size="12">PEUT CONSULTER</text>
</g>

<!-- Entity COMPTES -->
<g id="entity-COMPTES">
	<g id="frame-COMPTES">
		<rect x="184" y="9" width="120" height="25" fill="#fdae61" stroke="#fdae61" stroke-width="0"/>
		<rect x="184" y="34.0" width="120" height="93" fill="#fee090" stroke="#fee090" stroke-width="0"/>
		<rect x="184" y="9" width="120" height="118" fill="none" stroke="#f46d43" stroke-width="2"/>
		<line x1="184" y1="34" x2="304" y2="34" stroke="#f46d43" stroke-width="1"/>
	</g>
	<text x="214" y="26.7" fill="#000000" font-family="Verdana" font-size="12">COMPTES</text>
	<text x="189" y="51.7" fill="#000000" font-family="Verdana" font-size="12">nom</text>
	<line x1="189" y1="54" x2="217" y2="54" stroke="#000000" stroke-width="1"/>
	<text x="189" y="68.8" fill="#000000" font-family="Verdana" font-size="12">prenom</text>
	<text x="189" y="85.8" fill="#000000" font-family="Verdana" font-size="12">mail</text>
	<text x="189" y="102.8" fill="#000000" font-family="Verdana" font-size="12">mdp</text>
	<text x="189" y="119.8" fill="#000000" font-family="Verdana" font-size="12">date de naissance</text>
</g>

<!-- Entity ARTISTE -->
<g id="entity-ARTISTE">
	<g id="frame-ARTISTE">
		<rect x="739" y="144" width="64" height="25" fill="#fdae61" stroke="#fdae61" stroke-width="0"/>
		<rect x="739" y="169.0" width="64" height="59" fill="#fee090" stroke="#fee090" stroke-width="0"/>
		<rect x="739" y="144" width="64" height="84" fill="none" stroke="#f46d43" stroke-width="2"/>
		<line x1="739" y1="169" x2="803" y2="169" stroke="#f46d43" stroke-width="1"/>
	</g>
	<text x="744" y="161.7" fill="#000000" font-family="Verdana" font-size="12">ARTISTE</text>
	<text x="744" y="186.8" fill="#000000" font-family="Verdana" font-size="12">nom</text>
	<line x1="744" y1="189" x2="772" y2="189" stroke="#000000" stroke-width="1"/>
	<text x="744" y="203.8" fill="#000000" font-family="Verdana" font-size="12">prenom</text>
	<text x="744" y="220.8" fill="#000000" font-family="Verdana" font-size="12">style</text>
</g>

<!-- Entity PROGRAMMATION -->
<g id="entity-PROGRAMMATION">
	<g id="frame-PROGRAMMATION">
		<rect x="475" y="135" width="122" height="25" fill="#fdae61" stroke="#fdae61" stroke-width="0"/>
		<rect x="475" y="160.0" width="122" height="77" fill="#fee090" stroke="#fee090" stroke-width="0"/>
		<rect x="475" y="135" width="122" height="102" fill="none" stroke="#f46d43" stroke-width="2"/>
		<line x1="475" y1="160" x2="597" y2="160" stroke="#f46d43" stroke-width="1"/>
	</g>
	<text x="480" y="152.7" fill="#000000" font-family="Verdana" font-size="12">PROGRAMMATION</text>
	<text x="480" y="177.7" fill="#000000" font-family="Verdana" font-size="12">nom-scene</text>
	<line x1="480" y1="180" x2="547" y2="180" stroke="#000000" stroke-width="1"/>
	<text x="480" y="194.8" fill="#000000" font-family="Verdana" font-size="12">nom_artiste</text>
	<text x="480" y="211.8" fill="#000000" font-family="Verdana" font-size="12">date</text>
	<text x="480" y="228.8" fill="#000000" font-family="Verdana" font-size="12">heure</text>
</g>

<!-- Entity STATUT -->
<g id="entity-STATUT">
	<g id="frame-STATUT">
		<rect x="9" y="169" width="58" height="25" fill="#fdae61" stroke="#fdae61" stroke-width="0"/>
		<rect x="9" y="194.0" width="58" height="9" fill="#fee090" stroke="#fee090" stroke-width="0"/>
		<rect x="9" y="169" width="58" height="34" fill="none" stroke="#f46d43" stroke-width="2"/>
		<line x1="9" y1="194" x2="67" y2="194" stroke="#f46d43" stroke-width="1"/>
	</g>
	<text x="14" y="186.8" fill="#000000" font-family="Verdana" font-size="12">STATUT</text>
</g>

<!-- Entity PARTENAIRES -->
<g id="entity-PARTENAIRES">
	<g id="frame-PARTENAIRES">
		<rect x="488" y="262" width="96" height="25" fill="#fdae61" stroke="#fdae61" stroke-width="0"/>
		<rect x="488" y="287.0" width="96" height="59" fill="#fee090" stroke="#fee090" stroke-width="0"/>
		<rect x="488" y="262" width="96" height="84" fill="none" stroke="#f46d43" stroke-width="2"/>
		<line x1="488" y1="287" x2="584" y2="287" stroke="#f46d43" stroke-width="1"/>
	</g>
	<text x="493" y="279.7" fill="#000000" font-family="Verdana" font-size="12">PARTENAIRES</text>
	<text x="493" y="304.8" fill="#000000" font-family="Verdana" font-size="12">nom</text>
	<line x1="493" y1="307" x2="521" y2="307" stroke="#000000" stroke-width="1"/>
	<text x="493" y="321.8" fill="#000000" font-family="Verdana" font-size="12">catégorie</text>
	<text x="493" y="338.8" fill="#000000" font-family="Verdana" font-size="12">logo</text>
</g>

<!-- Entity ACTUALITES -->
<g id="entity-ACTUALITES">
	<g id="frame-ACTUALITES">
		<rect x="200" y="270" width="88" height="25" fill="#fdae61" stroke="#fdae61" stroke-width="0"/>
		<rect x="200" y="295.0" width="88" height="43" fill="#fee090" stroke="#fee090" stroke-width="0"/>
		<rect x="200" y="270" width="88" height="68" fill="none" stroke="#f46d43" stroke-width="2"/>
		<line x1="200" y1="295" x2="288" y2="295" stroke="#f46d43" stroke-width="1"/>
	</g>
	<text x="205" y="287.7" fill="#000000" font-family="Verdana" font-size="12">ACTUALITES</text>
	<text x="205" y="312.8" fill="#000000" font-family="Verdana" font-size="12">nom_actu</text>
	<line x1="205" y1="315" x2="266" y2="315" stroke="#000000" stroke-width="1"/>
	<text x="205" y="329.8" fill="#000000" font-family="Verdana" font-size="12">description</text>
</g>

<!-- Entity CONNEXION -->
<g id="entity-CONNEXION">
	<g id="frame-CONNEXION">
		<rect x="201" y="152" width="86" height="25" fill="#fdae61" stroke="#fdae61" stroke-width="0"/>
		<rect x="201" y="177.0" width="86" height="43" fill="#fee090" stroke="#fee090" stroke-width="0"/>
		<rect x="201" y="152" width="86" height="68" fill="none" stroke="#f46d43" stroke-width="2"/>
		<line x1="201" y1="177" x2="287" y2="177" stroke="#f46d43" stroke-width="1"/>
	</g>
	<text x="206" y="169.7" fill="#000000" font-family="Verdana" font-size="12">CONNEXION</text>
	<text x="206" y="194.8" fill="#000000" font-family="Verdana" font-size="12">mail</text>
	<line x1="206" y1="197" x2="232" y2="197" stroke="#000000" stroke-width="1"/>
	<text x="206" y="211.8" fill="#000000" font-family="Verdana" font-size="12">mdp</text>
</g>

<!-- Entity ALERTES -->
<g id="entity-ALERTES">
	<g id="frame-ALERTES">
		<rect x="324" y="270" width="114" height="25" fill="#fdae61" stroke="#fdae61" stroke-width="0"/>
		<rect x="324" y="295.0" width="114" height="43" fill="#fee090" stroke="#fee090" stroke-width="0"/>
		<rect x="324" y="270" width="114" height="68" fill="none" stroke="#f46d43" stroke-width="2"/>
		<line x1="324" y1="295" x2="438" y2="295" stroke="#f46d43" stroke-width="1"/>
	</g>
	<text x="353" y="287.7" fill="#000000" font-family="Verdana" font-size="12">ALERTES</text>
	<text x="329" y="312.8" fill="#000000" font-family="Verdana" font-size="12">nom_information</text>
	<line x1="329" y1="315" x2="433" y2="315" stroke="#000000" stroke-width="1"/>
	<text x="329" y="329.8" fill="#000000" font-family="Verdana" font-size="12">description</text>
</g>
</svg>